<?xml version="1.0" encoding="UTF-8"?>
<!DOCTYPE svg PUBLIC "-//W3C//DTD SVG 1.1//EN" "http://www.w3.org/Graphics/SVG/1.1/DTD/svg11.dtd">
<svg xmlns="http://www.w3.org/2000/svg" version="1.1" width="512px" height="512px" style="shape-rendering:geometricPrecision; text-rendering:geometricPrecision; image-rendering:optimizeQuality; fill-rule:evenodd; clip-rule:evenodd" xmlns:xlink="http://www.w3.org/1999/xlink">
<g><path style="opacity:0.903" fill="#0b0b0c" d="M 398.5,380.5 C 398.414,378.323 397.747,376.323 396.5,374.5C 391.985,371.333 388.652,367.333 386.5,362.5C 386.5,361.833 386.5,361.167 386.5,360.5C 386.5,359.167 386.5,357.833 386.5,356.5C 385.5,356.5 384.5,356.5 383.5,356.5C 383.665,359.85 383.498,363.183 383,366.5C 381.989,367.337 380.822,367.67 379.5,367.5C 379.5,366.5 379.5,365.5 379.5,364.5C 379.5,363.167 379.5,361.833 379.5,360.5C 379.884,358.335 379.217,356.668 377.5,355.5C 374.846,356.836 372.513,358.503 370.5,360.5C 367.996,361.584 365.663,362.917 363.5,364.5C 351.412,370.719 339.079,376.052 326.5,380.5C 318.75,380.422 311.417,381.922 304.5,385C 297.112,386.559 290.445,385.059 284.5,380.5C 273.091,389.134 260.758,390.634 247.5,385C 240.39,381.363 233.89,376.863 228,371.5C 205.306,378.397 182.472,384.897 159.5,391C 150.448,393.443 141.615,392.943 133,389.5C 119.435,395.673 106.602,394.34 94.5,385.5C 78.1156,392.144 61.1156,394.977 43.5,394C 24.2119,389.643 14.2119,377.476 13.5,357.5C 14.4991,348.004 16.3324,338.671 19,329.5C 29.9658,298.936 42.2991,268.936 56,239.5C 61.1665,230.01 67.6665,221.51 75.5,214C 84.5346,207.901 94.5346,204.234 105.5,203C 116.641,198.526 124.474,190.692 129,179.5C 135.283,159.934 142.95,140.934 152,122.5C 151.224,92.6005 157.558,64.2672 171,37.5C 174.736,34.9107 178.402,34.9107 182,37.5C 186.763,48.2141 190.763,59.2141 194,70.5C 201.14,81.4437 206.64,93.1103 210.5,105.5C 218.692,105.672 226.692,107.005 234.5,109.5C 233.229,87.2073 237.729,66.2073 248,46.5C 252.219,40.009 256.219,40.009 260,46.5C 265.743,64.0634 272.076,81.3967 279,98.5C 284.084,110.411 286.251,122.744 285.5,135.5C 292.066,140.993 294.233,147.993 292,156.5C 291.08,160.263 289.58,163.763 287.5,167C 292.167,167.667 296.833,167.667 301.5,167C 306.806,162.083 313.139,159.75 320.5,160C 331.511,154.552 342.844,149.885 354.5,146C 356.167,144.833 357.833,143.667 359.5,142.5C 360.5,101.172 360.833,59.8387 360.5,18.5C 362.167,18.5 363.833,18.5 365.5,18.5C 366.232,58.8269 366.732,99.1603 367,139.5C 367.75,138.874 368.584,138.374 369.5,138C 377.618,136.769 385.451,137.602 393,140.5C 398.051,136.108 403.051,131.775 408,127.5C 408.708,91.14 409.541,54.8067 410.5,18.5C 412.167,18.5 413.833,18.5 415.5,18.5C 415.333,33.837 415.5,49.1703 416,64.5C 416.333,60.8333 416.667,57.1667 417,53.5C 417.837,51.9926 419.004,51.4926 420.5,52C 422.028,53.6477 422.695,55.6477 422.5,58C 420.762,80.8323 419.095,103.666 417.5,126.5C 420.568,126.547 423.568,127.047 426.5,128C 437.812,133.663 449.812,136.663 462.5,137C 468.563,139.729 473.397,143.896 477,149.5C 487.3,170.4 494.8,192.234 499.5,215C 498.615,227.18 492.281,231.18 480.5,227C 471.571,224.787 463.738,220.62 457,214.5C 457.82,218.736 458.653,223.069 459.5,227.5C 458.864,234.585 456.197,240.751 451.5,246C 458.404,247.783 464.404,251.117 469.5,256C 491.583,280.826 499.75,309.659 494,342.5C 489.032,359.802 477.865,370.636 460.5,375C 453.833,376 447.167,377 440.5,378C 430.078,384.439 418.745,387.105 406.5,386C 403.279,384.896 400.612,383.063 398.5,380.5 Z M 255.5,228.5 C 255.907,234.161 256.24,239.828 256.5,245.5C 253.927,242.029 251.594,238.362 249.5,234.5C 250.514,231.486 252.514,229.486 255.5,228.5 Z M 262.5,241.5 C 265.01,248.509 267.844,255.509 271,262.5C 273.128,265.63 275.628,268.463 278.5,271C 284.581,272.858 289.081,271.025 292,265.5C 297.576,274.212 305.409,279.879 315.5,282.5C 312.568,287.647 309.735,292.981 307,298.5C 305.85,301.768 305.016,305.101 304.5,308.5C 298.57,309.197 293.403,311.53 289,315.5C 279.82,296.474 270.653,277.474 261.5,258.5C 262.117,258.389 262.617,258.056 263,257.5C 263.529,252.146 263.362,246.813 262.5,241.5 Z"/></g>
<g><path style="opacity:1" fill="#5a524c" d="M 261.5,123.5 C 265.622,126.734 269.955,129.734 274.5,132.5C 273.5,132.5 272.5,132.5 271.5,132.5C 271.33,133.822 271.663,134.989 272.5,136C 278.647,136.805 283.48,139.638 287,144.5C 288.197,154.91 285.364,164.076 278.5,172C 267.654,173.912 266.82,172.078 276,166.5C 276.612,164.763 275.946,163.763 274,163.5C 269.596,165.898 265.762,169.065 262.5,173C 253.065,173.827 243.731,173.16 234.5,171C 233.422,170.326 232.755,169.326 232.5,168C 233.986,164.2 235.319,160.367 236.5,156.5C 234.61,156.297 233.11,156.963 232,158.5C 230.151,162.198 228.318,165.864 226.5,169.5C 225.506,164.544 225.173,159.544 225.5,154.5C 224.167,154.5 222.833,154.5 221.5,154.5C 221.5,158.833 221.5,163.167 221.5,167.5C 209.398,164.949 198.064,160.449 187.5,154C 186.709,149.867 185.876,145.7 185,141.5C 183.594,138.078 181.761,137.745 179.5,140.5C 181.476,143.348 181.809,146.348 180.5,149.5C 169.869,140.032 162.369,142.032 158,155.5C 153.017,172.247 155.851,187.414 166.5,201C 165.711,202.626 164.711,204.126 163.5,205.5C 165.418,207.78 167.418,207.613 169.5,205C 170.833,204.333 172.167,204.333 173.5,205C 177.069,207.75 180.403,210.584 183.5,213.5C 181.206,227.735 179.873,242.069 179.5,256.5C 177.168,251.127 175.334,245.46 174,239.5C 173.334,229.481 173.501,219.481 174.5,209.5C 173.178,209.33 172.011,209.663 171,210.5C 170.118,213.789 169.452,217.123 169,220.5C 161.549,211.044 154.882,201.044 149,190.5C 148.333,185.167 148.333,179.833 149,174.5C 150.759,170.991 151.926,167.325 152.5,163.5C 151.178,163.33 150.011,163.663 149,164.5C 141.747,176.178 141.747,187.845 149,199.5C 156.414,209.323 163.081,219.656 169,230.5C 168.343,242.213 172.176,252.046 180.5,260C 185.112,262.501 189.112,265.834 192.5,270C 196.356,272.842 200.69,274.509 205.5,275C 202.612,278.222 200.112,281.722 198,285.5C 197.054,287.956 197.554,289.956 199.5,291.5C 202.215,284.617 206.548,278.783 212.5,274C 214.345,272.872 216.345,272.372 218.5,272.5C 218.5,278.5 218.5,284.5 218.5,290.5C 210.261,290.452 203.927,293.785 199.5,300.5C 189.412,299.957 181.912,303.957 177,312.5C 176.503,314.81 176.337,317.143 176.5,319.5C 171.487,320.369 166.487,321.369 161.5,322.5C 158.888,321.065 156.388,319.398 154,317.5C 152.069,296.534 150.402,275.534 149,254.5C 147.989,253.663 146.822,253.33 145.5,253.5C 146.544,273.832 147.544,294.165 148.5,314.5C 140.284,314.995 132.951,312.828 126.5,308C 115.895,304.362 106.728,306.528 99,314.5C 100.764,304.535 103.764,294.869 108,285.5C 108.494,283.866 108.66,282.199 108.5,280.5C 107.178,280.33 106.011,280.663 105,281.5C 99.2615,295.882 94.4281,310.549 90.5,325.5C 79.1618,325.333 67.8284,325.5 56.5,326C 55.6634,327.011 55.33,328.178 55.5,329.5C 67.8333,329.5 80.1667,329.5 92.5,329.5C 89.8182,332.098 88.3182,335.431 88,339.5C 87.5012,343.486 87.3345,347.486 87.5,351.5C 86.2502,351.577 85.4169,352.244 85,353.5C 83.4828,363.589 85.6495,372.756 91.5,381C 74.7044,387.913 57.3711,390.246 39.5,388C 29.9737,385.14 23.8071,378.974 21,369.5C 18.1858,354.798 19.5191,340.465 25,326.5C 35.5626,298.041 47.2292,270.041 60,242.5C 66.0562,229.111 75.5562,218.944 88.5,212C 98.6844,210.605 108.351,207.605 117.5,203C 121.553,200.07 125.053,196.57 128,192.5C 134.921,176.738 141.254,160.738 147,144.5C 150.606,137.621 153.939,130.621 157,123.5C 157.333,113.5 157.667,103.5 158,93.5C 160.596,78.7847 164.596,64.4514 170,50.5C 170.936,46.7926 172.769,43.6259 175.5,41C 176.635,40.2506 177.635,40.4173 178.5,41.5C 179.667,43.8333 180.833,46.1667 182,48.5C 184.205,56.9866 186.871,65.3199 190,73.5C 196.403,83.6401 201.737,94.3068 206,105.5C 206.499,109.152 206.665,112.818 206.5,116.5C 210.068,116.241 211.401,114.241 210.5,110.5C 217.938,110.967 225.272,112.134 232.5,114C 242.462,117.652 252.129,121.819 261.5,126.5C 261.5,125.5 261.5,124.5 261.5,123.5 Z"/></g>
<g><path style="opacity:1" fill="#f9f9f9" d="M 280.5,122.5 C 280.815,126.371 280.482,130.038 279.5,133.5C 277.784,133.371 276.117,133.038 274.5,132.5C 269.955,129.734 265.622,126.734 261.5,123.5C 255.095,119.211 248.261,115.545 241,112.5C 237.497,90.1923 241.164,69.1923 252,49.5C 252.689,48.6433 253.522,47.9767 254.5,47.5C 260.889,64.4944 267.389,81.4944 274,98.5C 277.094,106.276 279.26,114.276 280.5,122.5 Z"/></g>
<g><path style="opacity:1" fill="#090807" d="M 174.5,59.5 C 177.86,58.7904 179.693,60.1238 180,63.5C 180.671,72.2044 181.671,80.8711 183,89.5C 183.667,95.5 183.667,101.5 183,107.5C 179.794,111.281 176.128,114.615 172,117.5C 171.428,120.707 169.595,122.374 166.5,122.5C 166.46,119.575 167.293,116.909 169,114.5C 172.333,111.833 175.667,109.167 179,106.5C 179.37,93.3771 178.203,80.3771 175.5,67.5C 173.359,73.3961 171.525,79.3961 170,85.5C 168.989,86.3366 167.822,86.67 166.5,86.5C 167.464,76.974 170.131,67.974 174.5,59.5 Z"/></g>
<g><path style="opacity:1" fill="#7c7c7c" d="M 280.5,122.5 C 281.809,126.351 281.809,130.351 280.5,134.5C 279.893,134.376 279.56,134.043 279.5,133.5C 280.482,130.038 280.815,126.371 280.5,122.5 Z"/></g>
<g><path style="opacity:1" fill="#ad6e44" d="M 416.5,163.5 C 415.396,161.611 414.063,159.945 412.5,158.5C 413.108,149.459 414.108,140.459 415.5,131.5C 417.527,131.338 419.527,131.505 421.5,132C 428.843,134.673 436.177,137.34 443.5,140C 454.474,138.25 463.641,141.417 471,149.5C 481.902,169.707 489.736,191.04 494.5,213.5C 495.543,219.464 493.209,222.797 487.5,223.5C 472.889,220.278 460.389,213.278 450,202.5C 445.817,183.448 434.65,170.448 416.5,163.5 Z"/></g>
<g><path style="opacity:1" fill="#a86b43" d="M 407.5,150.5 C 405.754,148.748 403.754,147.415 401.5,146.5C 400.426,145.115 399.093,143.949 397.5,143C 408.521,131.227 411.854,133.727 407.5,150.5 Z"/></g>
<g><path style="opacity:1" fill="#f7f7f7" d="M 401.5,146.5 C 403.754,147.415 405.754,148.748 407.5,150.5C 408.244,154.119 408.577,157.785 408.5,161.5C 394.109,159.913 379.775,160.246 365.5,162.5C 365.171,156.463 365.504,150.463 366.5,144.5C 377.875,140.974 388.709,142.308 399,148.5C 400.301,148.361 401.134,147.695 401.5,146.5 Z"/></g>
<g><path style="opacity:1" fill="#03aef9" d="M 183.5,156.5 C 183.334,162.842 183.5,169.175 184,175.5C 184.671,176.252 185.504,176.586 186.5,176.5C 183.896,178.6 181.396,180.933 179,183.5C 176.833,182 175.333,182.5 174.5,185C 177.321,189.154 180.821,192.654 185,195.5C 185.497,198.146 185.664,200.813 185.5,203.5C 186.833,203.5 188.167,203.5 189.5,203.5C 189.215,201.712 189.548,200.045 190.5,198.5C 194.462,201.038 198.796,202.038 203.5,201.5C 202.862,199.54 202.862,197.707 203.5,196C 208.908,196.139 213.908,194.972 218.5,192.5C 219.483,196.298 219.817,200.298 219.5,204.5C 207.829,204.667 196.162,204.5 184.5,204C 171.125,202.292 163.292,194.792 161,181.5C 159.855,171.995 160.522,162.662 163,153.5C 164.119,150.709 166.119,149.043 169,148.5C 174.237,150.533 179.07,153.2 183.5,156.5 Z"/></g>
<g><path style="opacity:1" fill="#f4f4f4" d="M 360.5,147.5 C 361.489,152.975 361.822,158.642 361.5,164.5C 357.374,164.572 353.374,165.239 349.5,166.5C 349.5,164.5 349.5,162.5 349.5,160.5C 348.178,160.33 347.011,160.663 346,161.5C 346.619,166.934 344.285,169.934 339,170.5C 337.667,169.167 336.333,167.833 335,166.5C 333.72,166.613 332.887,167.28 332.5,168.5C 333.167,169.833 333.833,171.167 334.5,172.5C 321.739,177.958 310.239,185.291 300,194.5C 299.789,186.127 301.456,178.127 305,170.5C 306.731,168.383 308.898,166.883 311.5,166C 316.823,165.501 322.156,165.334 327.5,165.5C 327.238,164.022 327.571,162.689 328.5,161.5C 336.572,157.643 344.905,154.476 353.5,152C 356.239,150.974 358.572,149.474 360.5,147.5 Z"/></g>
<g><path style="opacity:1" fill="#72f8fd" d="M 185.5,157.5 C 186.71,157.932 187.71,158.599 188.5,159.5C 188.059,172.716 193.059,183.216 203.5,191C 206.5,191.667 209.5,191.667 212.5,191C 219.646,187.002 222.312,180.835 220.5,172.5C 222.696,172.59 224.863,172.923 227,173.5C 228.376,173.684 229.209,174.351 229.5,175.5C 229.334,181.842 229.5,188.175 230,194.5C 231.739,195.894 233.739,196.561 236,196.5C 246.056,193.284 253.556,186.95 258.5,177.5C 260.167,177.5 261.833,177.5 263.5,177.5C 260.605,182.409 257.271,187.075 253.5,191.5C 256.497,194.162 257.831,197.495 257.5,201.5C 259.167,201.5 260.833,201.5 262.5,201.5C 262.649,202.552 262.483,203.552 262,204.5C 260.197,205.313 258.697,206.48 257.5,208C 258.24,212.181 259.074,216.348 260,220.5C 261.829,218.844 263.163,216.844 264,214.5C 264.61,201.298 268.11,188.965 274.5,177.5C 275.919,176.549 277.585,176.216 279.5,176.5C 272.277,189.175 268.277,202.842 267.5,217.5C 264.098,220.535 260.098,222.535 255.5,223.5C 255.16,218.777 254.493,214.11 253.5,209.5C 247.206,208.892 240.872,208.892 234.5,209.5C 233.29,209.068 232.29,208.401 231.5,207.5C 232.64,204.975 233.307,202.308 233.5,199.5C 232.07,199.579 230.736,199.246 229.5,198.5C 228.52,201.086 228.187,203.753 228.5,206.5C 227.209,206.737 226.209,206.404 225.5,205.5C 225.824,201.445 225.491,197.445 224.5,193.5C 223.511,197.107 223.177,200.774 223.5,204.5C 222.5,204.5 221.5,204.5 220.5,204.5C 220.666,199.821 220.499,195.155 220,190.5C 219.283,191.044 218.783,191.711 218.5,192.5C 213.908,194.972 208.908,196.139 203.5,196C 202.862,197.707 202.862,199.54 203.5,201.5C 198.796,202.038 194.462,201.038 190.5,198.5C 189.548,200.045 189.215,201.712 189.5,203.5C 188.167,203.5 186.833,203.5 185.5,203.5C 185.664,200.813 185.497,198.146 185,195.5C 180.821,192.654 177.321,189.154 174.5,185C 175.333,182.5 176.833,182 179,183.5C 181.396,180.933 183.896,178.6 186.5,176.5C 185.835,171.51 185.168,166.51 184.5,161.5C 184.511,159.955 184.844,158.622 185.5,157.5 Z"/></g>
<g><path style="opacity:1" fill="#e4dbd5" d="M 412.5,158.5 C 414.063,159.945 415.396,161.611 416.5,163.5C 413.516,163.213 412.183,161.546 412.5,158.5 Z"/></g>
<g><path style="opacity:1" fill="#02b0fd" d="M 188.5,159.5 C 198.723,164.945 209.39,169.279 220.5,172.5C 222.312,180.835 219.646,187.002 212.5,191C 209.5,191.667 206.5,191.667 203.5,191C 193.059,183.216 188.059,172.716 188.5,159.5 Z"/></g>
<g><path style="opacity:1" fill="#00aaf5" d="M 376.5,164.5 C 386.843,164.588 397.176,164.922 407.5,165.5C 407.826,169.884 407.492,174.217 406.5,178.5C 393.976,178.948 392.976,176.781 403.5,172C 404.337,170.989 404.67,169.822 404.5,168.5C 400.396,168.884 396.729,170.384 393.5,173C 384.961,181.426 377.627,190.759 371.5,201C 369.975,202.009 368.308,202.509 366.5,202.5C 366.5,190.5 366.5,178.5 366.5,166.5C 370.04,166.247 373.373,165.581 376.5,164.5 Z"/></g>
<g><path style="opacity:1" fill="#00acf8" d="M 411.5,220.5 C 410.551,215.26 410.218,209.927 410.5,204.5C 412.292,203.691 414.292,203.191 416.5,203C 417.337,201.989 417.67,200.822 417.5,199.5C 415.5,199.5 413.5,199.5 411.5,199.5C 411.5,195.167 411.5,190.833 411.5,186.5C 412.791,186.737 413.791,186.404 414.5,185.5C 415.043,185.44 415.376,185.107 415.5,184.5C 414.52,183.019 413.353,181.685 412,180.5C 411.501,175.845 411.334,171.179 411.5,166.5C 428.923,171.423 440.257,182.59 445.5,200C 445.167,200.5 444.833,201 444.5,201.5C 441.081,197.669 438.414,193.335 436.5,188.5C 435.311,187.571 433.978,187.238 432.5,187.5C 434.375,195.579 438.541,202.246 445,207.5C 445.835,211.503 444.669,214.836 441.5,217.5C 431.949,222.876 421.949,223.876 411.5,220.5 Z"/></g>
<g><path style="opacity:1" fill="#00a8f2" d="M 360.5,167.5 C 361.829,172.792 362.496,178.458 362.5,184.5C 365.399,205.698 361.899,207.031 352,188.5C 350.71,182.554 349.877,176.554 349.5,170.5C 353.446,170.118 357.112,169.118 360.5,167.5 Z"/></g>
<g><path style="opacity:1" fill="#1a4a5a" d="M 183.5,156.5 C 184.492,156.328 185.158,156.662 185.5,157.5C 184.844,158.622 184.511,159.955 184.5,161.5C 185.168,166.51 185.835,171.51 186.5,176.5C 185.504,176.586 184.671,176.252 184,175.5C 183.5,169.175 183.334,162.842 183.5,156.5 Z"/></g>
<g><path style="opacity:1" fill="#aa6c43" d="M 283.5,173.5 C 288.68,172.185 294.014,172.185 299.5,173.5C 297.266,182.036 295.766,190.703 295,199.5C 287.075,208.006 283.742,218.006 285,229.5C 286.953,237.182 288.787,244.848 290.5,252.5C 290.812,258.888 288.312,263.555 283,266.5C 280.497,266.01 278.497,264.677 277,262.5C 269.882,250.336 266.382,237.336 266.5,223.5C 282.034,212.083 288.534,196.75 286,177.5C 285.8,175.68 284.966,174.347 283.5,173.5 Z"/></g>
<g><path style="opacity:1" fill="#03b0fc" d="M 258.5,177.5 C 253.556,186.95 246.056,193.284 236,196.5C 233.739,196.561 231.739,195.894 230,194.5C 229.5,188.175 229.334,181.842 229.5,175.5C 230.265,175.077 231.098,174.743 232,174.5C 240.716,176.536 249.549,177.536 258.5,177.5 Z"/></g>
<g><path style="opacity:1" fill="#07b3fe" d="M 263.5,177.5 C 267.167,177.5 270.833,177.5 274.5,177.5C 268.11,188.965 264.61,201.298 264,214.5C 263.163,216.844 261.829,218.844 260,220.5C 259.074,216.348 258.24,212.181 257.5,208C 258.697,206.48 260.197,205.313 262,204.5C 262.483,203.552 262.649,202.552 262.5,201.5C 260.833,201.5 259.167,201.5 257.5,201.5C 257.831,197.495 256.497,194.162 253.5,191.5C 257.271,187.075 260.605,182.409 263.5,177.5 Z"/></g>
<g><path style="opacity:1" fill="#08aef7" d="M 267.5,217.5 C 268.277,202.842 272.277,189.175 279.5,176.5C 280.566,175.308 281.399,175.641 282,177.5C 284.353,190.085 281.686,201.418 274,211.5C 271.963,213.706 269.797,215.706 267.5,217.5 Z"/></g>
<g><path style="opacity:1" fill="#00abf7" d="M 334.5,176.5 C 335.496,176.414 336.329,176.748 337,177.5C 341.677,185.222 343.677,193.556 343,202.5C 340.747,209.106 336.247,211.273 329.5,209C 321.628,204.3 313.628,199.8 305.5,195.5C 314.34,187.913 324.007,181.579 334.5,176.5 Z"/></g>
<g><path style="opacity:1" fill="#0085bf" d="M 401.5,182.5 C 403.017,181.265 404.684,181.265 406.5,182.5C 407.614,183.723 407.781,185.056 407,186.5C 405.568,184.561 403.735,183.228 401.5,182.5 Z"/></g>
<g><path style="opacity:1" fill="#005176" d="M 414.5,185.5 C 413.791,186.404 412.791,186.737 411.5,186.5C 411.5,190.833 411.5,195.167 411.5,199.5C 410.514,195.03 410.181,190.363 410.5,185.5C 411.833,185.5 413.167,185.5 414.5,185.5 Z"/></g>
<g><path style="opacity:1" fill="#19b7f9" d="M 231.5,207.5 C 230.209,207.737 229.209,207.404 228.5,206.5C 228.187,203.753 228.52,201.086 229.5,198.5C 230.736,199.246 232.07,199.579 233.5,199.5C 233.307,202.308 232.64,204.975 231.5,207.5 Z"/></g>
<g><path style="opacity:1" fill="#45d7f6" d="M 225.5,205.5 C 223.265,205.795 221.265,205.461 219.5,204.5C 219.817,200.298 219.483,196.298 218.5,192.5C 218.783,191.711 219.283,191.044 220,190.5C 220.499,195.155 220.666,199.821 220.5,204.5C 221.5,204.5 222.5,204.5 223.5,204.5C 223.177,200.774 223.511,197.107 224.5,193.5C 225.491,197.445 225.824,201.445 225.5,205.5 Z"/></g>
<g><path style="opacity:1" fill="#00a0e6" d="M 402.5,204.5 C 403.833,204.5 405.167,204.5 406.5,204.5C 406.46,209.193 406.127,213.859 405.5,218.5C 398.108,216.985 390.774,215.152 383.5,213C 377.888,211.869 372.221,211.369 366.5,211.5C 366.5,209.833 366.5,208.167 366.5,206.5C 368.262,206.643 369.929,206.309 371.5,205.5C 373.247,209.091 376.08,210.758 380,210.5C 387.71,208.866 395.21,206.866 402.5,204.5 Z"/></g>
<g><path style="opacity:1" fill="#75ebeb" d="M 188.5,208.5 C 186.248,224.436 184.581,240.436 183.5,256.5C 182.039,257.686 180.705,257.686 179.5,256.5C 179.873,242.069 181.206,227.735 183.5,213.5C 183.5,211.833 183.5,210.167 183.5,208.5C 185.167,208.5 186.833,208.5 188.5,208.5 Z"/></g>
<g><path style="opacity:1" fill="#08aef8" d="M 255.5,223.5 C 252.984,223.245 250.65,222.411 248.5,221C 243.935,216.925 239.268,213.091 234.5,209.5C 240.872,208.892 247.206,208.892 253.5,209.5C 254.493,214.11 255.16,218.777 255.5,223.5 Z"/></g>
<g><path style="opacity:1" fill="#59524c" d="M 188.5,208.5 C 200.012,208.172 211.346,208.505 222.5,209.5C 221.5,209.5 220.5,209.5 219.5,209.5C 219.5,216.833 219.5,224.167 219.5,231.5C 213.855,230.613 208.188,230.446 202.5,231C 193.683,236.03 192.183,242.863 198,251.5C 201.058,255.062 204.558,258.062 208.5,260.5C 199.555,262.508 191.221,261.175 183.5,256.5C 184.581,240.436 186.248,224.436 188.5,208.5 Z"/></g>
<g><path style="opacity:1" fill="#74f2f2" d="M 222.5,209.5 C 222.833,209.5 223.167,209.5 223.5,209.5C 223.817,225.244 223.484,240.911 222.5,256.5C 222.565,256.938 222.399,257.272 222,257.5C 221.8,255.68 220.966,254.347 219.5,253.5C 219.5,247.833 219.5,242.167 219.5,236.5C 219.5,234.833 219.5,233.167 219.5,231.5C 219.5,224.167 219.5,216.833 219.5,209.5C 220.5,209.5 221.5,209.5 222.5,209.5 Z"/></g>
<g><path style="opacity:1" fill="#00a9f2" d="M 325.5,243.5 C 325.5,243.833 325.5,244.167 325.5,244.5C 324.5,244.5 323.5,244.5 322.5,244.5C 317.252,254.132 309.585,256.965 299.5,253C 298.12,251.075 296.62,249.241 295,247.5C 296.843,232.626 297.843,217.626 298,202.5C 299.685,200.983 301.185,199.316 302.5,197.5C 304.277,199.893 306.61,201.56 309.5,202.5C 301.744,206.509 299.077,212.676 301.5,221C 302.449,221.617 303.282,221.451 304,220.5C 303.272,214.857 305.105,210.357 309.5,207C 310.5,206.333 311.5,206.333 312.5,207C 307.741,211.491 306.241,216.991 308,223.5C 308.94,226.674 310.44,229.507 312.5,232C 310.799,233.86 309.799,236.027 309.5,238.5C 311.308,238.509 312.975,238.009 314.5,237C 320.984,231.589 327.984,226.922 335.5,223C 337.667,221.5 339.5,219.667 341,217.5C 343.684,211.439 345.85,205.106 347.5,198.5C 346.982,190.28 344.649,182.614 340.5,175.5C 341.786,173.429 343.453,173.096 345.5,174.5C 346.09,182.615 348.256,190.282 352,197.5C 354.727,200.731 357.894,203.397 361.5,205.5C 362.474,207.743 362.808,210.076 362.5,212.5C 346.73,215.476 334.563,223.809 326,237.5C 324.388,239.456 324.222,241.456 325.5,243.5 Z"/></g>
<g><path style="opacity:1" fill="#73eff0" d="M 226.5,210.5 C 227.492,210.328 228.158,210.662 228.5,211.5C 228.5,219.833 228.5,228.167 228.5,236.5C 228.5,242.5 228.5,248.5 228.5,254.5C 228.306,256.912 226.973,257.912 224.5,257.5C 224.5,257.167 224.5,256.833 224.5,256.5C 223.849,240.797 224.516,225.464 226.5,210.5 Z"/></g>
<g><path style="opacity:1" fill="#58514b" d="M 228.5,211.5 C 229.922,211.709 231.255,212.209 232.5,213C 237.712,217.717 243.045,222.217 248.5,226.5C 245.474,229.912 243.64,233.912 243,238.5C 243.318,246.82 241.984,254.82 239,262.5C 237.786,264.049 236.286,265.215 234.5,266C 230.5,266.667 226.5,266.667 222.5,266C 220.776,262.464 221.443,259.631 224.5,257.5C 226.973,257.912 228.306,256.912 228.5,254.5C 232.939,251.041 233.939,246.875 231.5,242C 232.946,238.928 231.946,237.095 228.5,236.5C 228.5,228.167 228.5,219.833 228.5,211.5 Z"/></g>
<g><path style="opacity:1" fill="#009ce0" d="M 292.5,209.5 C 293.945,218.448 293.445,227.448 291,236.5C 287.312,227.247 287.812,218.247 292.5,209.5 Z"/></g>
<g><path style="opacity:1" fill="#fbfbfb" d="M 419.5,227.5 C 423.5,226.833 427.5,226.167 431.5,225.5C 439.552,224.481 445.552,220.481 449.5,213.5C 450.919,215.336 452.086,217.336 453,219.5C 454.888,228.823 452.888,237.156 447,244.5C 438.527,248.634 430.86,253.968 424,260.5C 423.075,263.134 423.909,264.301 426.5,264C 442.585,246.659 457.752,247.492 472,266.5C 486.547,285.677 492.881,307.343 491,331.5C 486.694,360.461 469.861,373.961 440.5,372C 429.6,379.779 417.6,382.446 404.5,380C 403.044,378.255 401.711,376.422 400.5,374.5C 406.42,374.117 412.087,372.784 417.5,370.5C 418.386,369.675 418.719,368.675 418.5,367.5C 413.319,368.42 408.152,369.42 403,370.5C 401.236,370.456 399.569,370.122 398,369.5C 395.942,363.98 395.276,358.313 396,352.5C 402.676,351.897 409.176,350.397 415.5,348C 419.367,344.34 420.534,339.84 419,334.5C 418.167,333.667 417.333,332.833 416.5,332C 410.167,331.667 403.833,331.333 397.5,331C 393.382,326.12 393.716,321.453 398.5,317C 409.427,311.302 418.594,313.469 426,323.5C 428.167,327 430.333,330.5 432.5,334C 433.448,334.483 434.448,334.649 435.5,334.5C 435.623,331.412 434.623,328.745 432.5,326.5C 440.601,319.356 443.435,310.356 441,299.5C 439.989,298.663 438.822,298.33 437.5,298.5C 437.666,303.844 437.499,309.177 437,314.5C 435.541,317.756 433.374,320.423 430.5,322.5C 424.222,313.193 415.556,309.027 404.5,310C 401.554,310.806 398.888,312.139 396.5,314C 394.866,314.494 393.199,314.66 391.5,314.5C 390.365,298.514 389.865,282.514 390,266.5C 393.491,262.854 395.324,258.52 395.5,253.5C 394.178,253.33 393.011,253.663 392,254.5C 389.409,263.861 387.909,263.528 387.5,253.5C 393.424,252.025 399.09,249.858 404.5,247C 409.695,243.111 412.029,237.944 411.5,231.5C 410.5,231.5 409.5,231.5 408.5,231.5C 408.5,229.167 408.5,226.833 408.5,224.5C 414.2,225.207 417.2,228.54 417.5,234.5C 416.795,238.72 414.628,242.053 411,244.5C 410.517,245.448 410.351,246.448 410.5,247.5C 417.313,245.771 420.98,241.271 421.5,234C 421.518,231.59 420.851,229.423 419.5,227.5 Z"/></g>
<g><path style="opacity:1" fill="#f8f8f8" d="M 366.5,215.5 C 370.182,215.335 373.848,215.501 377.5,216C 386.667,217.709 395.667,219.876 404.5,222.5C 404.533,226.869 404.2,231.202 403.5,235.5C 404.822,235.67 405.989,235.337 407,234.5C 406.208,239.988 403.041,243.821 397.5,246C 388.041,248.805 378.374,250.638 368.5,251.5C 368.337,249.143 368.503,246.81 369,244.5C 374.31,240.2 377.477,234.7 378.5,228C 377.744,221.581 374.077,218.248 367.5,218C 366.748,217.329 366.414,216.496 366.5,215.5 Z"/></g>
<g><path style="opacity:1" fill="#006896" d="M 410.5,204.5 C 410.218,209.927 410.551,215.26 411.5,220.5C 410.188,218.257 409.522,215.59 409.5,212.5C 409.503,209.645 409.836,206.978 410.5,204.5 Z"/></g>
<g><path style="opacity:1" fill="#d3d3d3" d="M 356.5,221.5 C 358.527,221.338 360.527,221.505 362.5,222C 357.322,225.763 351.655,228.096 345.5,229C 348.886,225.982 352.553,223.482 356.5,221.5 Z"/></g>
<g><path style="opacity:1" fill="#efefef" d="M 368.5,222.5 C 372.156,222.823 374.156,224.823 374.5,228.5C 373.882,233.068 371.715,236.735 368,239.5C 367.215,233.751 367.382,228.084 368.5,222.5 Z"/></g>
<g><path style="opacity:1" fill="#696969" d="M 431.5,225.5 C 427.5,226.167 423.5,226.833 419.5,227.5C 418.957,227.44 418.624,227.107 418.5,226.5C 422.783,225.508 427.116,225.174 431.5,225.5 Z"/></g>
<g><path style="opacity:1" fill="#999999" d="M 340.5,229.5 C 340.5,228.833 340.167,228.5 339.5,228.5C 340.879,225.927 342.879,224.427 345.5,224C 343.598,225.73 341.931,227.563 340.5,229.5 Z"/></g>
<g><path style="opacity:0.754" fill="#77fafa" d="M 262.5,238.5 C 262.5,239.5 262.5,240.5 262.5,241.5C 263.362,246.813 263.529,252.146 263,257.5C 262.617,258.056 262.117,258.389 261.5,258.5C 260.883,258.389 260.383,258.056 260,257.5C 258.808,253.377 257.641,249.377 256.5,245.5C 256.24,239.828 255.907,234.161 255.5,228.5C 257.044,227.086 258.711,226.753 260.5,227.5C 261.104,231.303 261.77,234.969 262.5,238.5 Z"/></g>
<g><path style="opacity:1" fill="#f5f5f5" d="M 325.5,244.5 C 325.5,244.167 325.5,243.833 325.5,243.5C 328.805,241.346 331.305,238.346 333,234.5C 335.037,232.294 337.203,230.294 339.5,228.5C 340.167,228.5 340.5,228.833 340.5,229.5C 336.702,244.547 342.702,251.047 358.5,249C 359.833,248 359.833,247 358.5,246C 352.371,246.598 347.204,244.764 343,240.5C 342.505,238.527 342.338,236.527 342.5,234.5C 349.616,232.942 356.282,230.275 362.5,226.5C 363.997,233.693 363.664,240.693 361.5,247.5C 362.5,247.5 363.5,247.5 364.5,247.5C 364.799,249.604 364.466,251.604 363.5,253.5C 356.265,259.118 348.265,263.118 339.5,265.5C 333.299,265.317 329.132,262.317 327,256.5C 326.767,252.415 326.267,248.415 325.5,244.5 Z"/></g>
<g><path style="opacity:1" fill="#5b9593" d="M 223.5,209.5 C 224.791,209.263 225.791,209.596 226.5,210.5C 224.516,225.464 223.849,240.797 224.5,256.5C 223.833,256.5 223.167,256.5 222.5,256.5C 223.484,240.911 223.817,225.244 223.5,209.5 Z"/></g>
<g><path style="opacity:1" fill="#080707" d="M 228.5,236.5 C 231.946,237.095 232.946,238.928 231.5,242C 233.939,246.875 232.939,251.041 228.5,254.5C 228.5,248.5 228.5,242.5 228.5,236.5 Z"/></g>
<g><path style="opacity:1" fill="#57504b" d="M 219.5,236.5 C 219.5,242.167 219.5,247.833 219.5,253.5C 217.952,253.821 217.285,254.821 217.5,256.5C 204.796,256.803 199.13,250.803 200.5,238.5C 204.62,245.227 210.62,248.227 218.5,247.5C 218.5,246.167 218.5,244.833 218.5,243.5C 211.109,244.404 206.443,241.404 204.5,234.5C 209.659,234.182 214.659,234.848 219.5,236.5 Z"/></g>
<g><path style="opacity:1" fill="#59514b" d="M 250.5,314.5 C 251.412,313.262 251.579,311.928 251,310.5C 249.893,307.887 248.06,306.22 245.5,305.5C 246.5,305.5 247.5,305.5 248.5,305.5C 246.494,301.653 243.494,298.486 239.5,296C 234.234,293.356 228.734,291.522 223,290.5C 222.5,283.842 222.334,277.175 222.5,270.5C 226.846,270.666 231.179,270.499 235.5,270C 240.838,267.993 244.004,264.159 245,258.5C 245.888,252.844 246.721,247.177 247.5,241.5C 260.302,267.771 273.135,294.105 286,320.5C 286.238,324.222 286.738,327.889 287.5,331.5C 278.872,340.66 277.206,350.993 282.5,362.5C 281.691,367.223 281.358,371.89 281.5,376.5C 268.374,385.986 255.374,385.819 242.5,376C 262.512,372.136 269.179,360.636 262.5,341.5C 264.879,332.809 263.046,325.142 257,318.5C 255.676,315.756 253.509,314.423 250.5,314.5 Z"/></g>
<g><path style="opacity:1" fill="#f2f2f2" d="M 317.5,268.5 C 316.833,271.5 316.167,274.5 315.5,277.5C 302.575,274.428 295.742,266.428 295,253.5C 301.217,260.36 308.383,261.36 316.5,256.5C 317.491,260.445 317.824,264.445 317.5,268.5 Z"/></g>
<g><path style="opacity:1" fill="#fafafa" d="M 321.5,268.5 C 322.167,264.833 322.833,261.167 323.5,257.5C 328.799,269.3 337.465,272.466 349.5,267C 355.337,263.582 361.004,259.916 366.5,256C 372.487,255.002 378.487,254.168 384.5,253.5C 384.666,257.846 384.499,262.179 384,266.5C 377.045,271.863 369.211,273.696 360.5,272C 356.979,270.326 353.313,269.16 349.5,268.5C 349.33,269.822 349.663,270.989 350.5,272C 361.874,278.012 373.208,277.846 384.5,271.5C 386.108,285.793 387.108,300.126 387.5,314.5C 385.473,314.338 383.473,314.505 381.5,315C 378.167,317.667 374.833,320.333 371.5,323C 361.483,323.832 351.483,323.666 341.5,322.5C 336.726,313.899 329.393,310.232 319.5,311.5C 319.334,305.158 319.5,298.825 320,292.5C 321.385,284.83 324.052,284.497 328,291.5C 328.499,295.486 328.666,299.486 328.5,303.5C 329.833,303.5 331.167,303.5 332.5,303.5C 334.513,293.104 331.013,285.437 322,280.5C 321.501,276.514 321.334,272.514 321.5,268.5 Z"/></g>
<g><path style="opacity:1" fill="#524b45" d="M 194.5,266.5 C 201.536,264.878 208.536,265.378 215.5,268C 208.195,271.651 201.195,271.151 194.5,266.5 Z"/></g>
<g><path style="opacity:1" fill="#b6b6b6" d="M 323.5,257.5 C 322.833,261.167 322.167,264.833 321.5,268.5C 321.334,263.156 321.501,257.823 322,252.5C 323.009,254.025 323.509,255.692 323.5,257.5 Z"/></g>
<g><path style="opacity:1" fill="#939393" d="M 317.5,268.5 C 317.82,271.898 317.487,275.232 316.5,278.5C 315.893,278.376 315.56,278.043 315.5,277.5C 316.167,274.5 316.833,271.5 317.5,268.5 Z"/></g>
<g><path style="opacity:1" fill="#e39e6f" d="M 214.5,294.5 C 216.167,294.5 217.833,294.5 219.5,294.5C 219.83,301.532 219.497,308.532 218.5,315.5C 206.582,318.418 201.415,313.751 203,301.5C 206.214,297.984 210.047,295.65 214.5,294.5 Z"/></g>
<g><path style="opacity:1" fill="#e49f70" d="M 245.5,305.5 C 248.06,306.22 249.893,307.887 251,310.5C 251.579,311.928 251.412,313.262 250.5,314.5C 249.475,314.897 249.308,315.563 250,316.5C 264.682,333.174 262.182,346.674 242.5,357C 230.67,359.709 225.503,355.209 227,343.5C 231.685,340.486 236.518,337.653 241.5,335C 246.489,331.422 248.489,326.756 247.5,321C 246.167,321 244.833,321 243.5,321C 238.663,315.074 232.663,312.241 225.5,312.5C 224.833,309.167 224.167,305.833 223.5,302.5C 223.5,300.167 223.5,297.833 223.5,295.5C 232.087,296.128 239.42,299.461 245.5,305.5 Z"/></g>
<g><path style="opacity:1" fill="#e5e5e5" d="M 314.5,294.5 C 315.487,299.305 315.821,304.305 315.5,309.5C 313.5,309.5 311.5,309.5 309.5,309.5C 309.78,303.993 311.447,298.993 314.5,294.5 Z"/></g>
<g><path style="opacity:1" fill="#ececec" d="M 190.5,305.5 C 193.167,305.5 195.833,305.5 198.5,305.5C 197.997,310.172 197.831,314.839 198,319.5C 199.892,323.058 202.725,325.558 206.5,327C 200.782,331.019 194.449,333.686 187.5,335C 180.075,336.285 172.742,337.952 165.5,340C 161.848,340.499 158.182,340.665 154.5,340.5C 154.406,334.465 154.239,328.465 154,322.5C 156.707,326.035 160.207,327.202 164.5,326C 173.7,324.412 182.7,322.078 191.5,319C 192.337,317.989 192.67,316.822 192.5,315.5C 188.424,315.121 184.757,316.121 181.5,318.5C 180.276,316.102 180.442,313.769 182,311.5C 184.322,308.605 187.155,306.605 190.5,305.5 Z"/></g>
<g><path style="opacity:1" fill="#78543b" d="M 223.5,302.5 C 224.167,305.833 224.833,309.167 225.5,312.5C 225.44,313.043 225.107,313.376 224.5,313.5C 223.511,309.893 223.177,306.226 223.5,302.5 Z"/></g>
<g><path style="opacity:1" fill="#e59f70" d="M 87.5,351.5 C 87.3345,347.486 87.5012,343.486 88,339.5C 88.3182,335.431 89.8182,332.098 92.5,329.5C 96.2584,324.565 100.258,319.732 104.5,315C 118.21,306.769 129.043,309.603 137,323.5C 139.846,331.971 137.013,335.471 128.5,334C 122.506,330.834 116.173,329 109.5,328.5C 109.477,330.6 110.144,332.433 111.5,334C 108.912,343.823 112.245,350.823 121.5,355C 126.723,356.76 132.056,358.093 137.5,359C 143.795,361.425 145.962,365.925 144,372.5C 137.068,378.054 129.568,378.887 121.5,375C 115.49,372.483 110.157,368.983 105.5,364.5C 103.717,365.348 103.217,366.681 104,368.5C 111.694,375.931 120.86,379.931 131.5,380.5C 131.333,385.437 128.666,387.937 123.5,388C 108.942,390.47 98.1085,385.303 91,372.5C 90.3313,365.146 89.1646,358.146 87.5,351.5 Z"/></g>
<g><path style="opacity:1" fill="#f6f6f6" d="M 301.5,313.5 C 305.833,313.5 310.167,313.5 314.5,313.5C 314.666,319.176 314.499,324.843 314,330.5C 308.917,331.307 303.75,331.807 298.5,332C 295.801,336.568 293.467,341.401 291.5,346.5C 288.41,347.589 286.41,349.589 285.5,352.5C 289.105,352.201 292.439,351.035 295.5,349C 307.047,346.558 312.213,351.058 311,362.5C 298.997,369.655 289.997,366.988 284,354.5C 282.359,346.448 284.692,339.782 291,334.5C 290.709,329.856 290.709,325.189 291,320.5C 293.998,317.262 297.498,314.929 301.5,313.5 Z"/></g>
<g><path style="opacity:1" fill="#e9e9e9" d="M 227.5,315.5 C 232.465,316.654 236.465,319.321 239.5,323.5C 238.141,325.692 236.308,327.359 234,328.5C 233.388,330.237 234.054,331.237 236,331.5C 237.626,330.711 239.126,329.711 240.5,328.5C 239.35,332.102 236.516,334.436 232,335.5C 230.575,332.802 228.575,332.136 226,333.5C 225.333,331.5 225.333,329.5 226,327.5C 226.899,329.327 228.233,330.66 230,331.5C 231.28,331.387 232.113,330.72 232.5,329.5C 230.973,327.807 229.64,325.973 228.5,324C 227.207,323.51 225.873,323.343 224.5,323.5C 224.597,320.406 225.597,317.74 227.5,315.5 Z"/></g>
<g><path style="opacity:1" fill="#68e1e3" d="M 334.5,324.5 C 332.712,321.385 330.046,319.385 326.5,318.5C 324.471,316.98 324.471,315.98 326.5,315.5C 331.556,316.024 335.223,318.524 337.5,323C 336.263,323.232 335.263,323.732 334.5,324.5 Z"/></g>
<g><path style="opacity:1" fill="#e4e4e4" d="M 318.5,316.5 C 321.436,317.515 322.769,319.682 322.5,323C 322.657,325.852 321.49,328.018 319,329.5C 318.501,325.179 318.334,320.846 318.5,316.5 Z"/></g>
<g><path style="opacity:1" fill="#e9e9e9" d="M 138.5,317.5 C 142.331,317.416 145.998,318.083 149.5,319.5C 149.817,322.572 149.484,325.572 148.5,328.5C 146.358,327.399 144.192,326.399 142,325.5C 141.079,322.664 139.912,319.998 138.5,317.5 Z"/></g>
<g><path style="opacity:1" fill="#dadada" d="M 201.5,316.5 C 203.138,317.657 204.804,318.824 206.5,320C 211.217,320.476 215.883,320.476 220.5,320C 214.168,324.813 208.001,324.647 202,319.5C 201.517,318.552 201.351,317.552 201.5,316.5 Z"/></g>
<g><path style="opacity:1" fill="#07a7ee" d="M 326.5,318.5 C 330.046,319.385 332.712,321.385 334.5,324.5C 334.5,325.167 334.5,325.833 334.5,326.5C 333.566,327.568 333.232,328.901 333.5,330.5C 337.5,330.5 341.5,330.5 345.5,330.5C 345.694,332.912 347.027,333.912 349.5,333.5C 349.5,332.5 349.5,331.5 349.5,330.5C 350.833,330.5 352.167,330.5 353.5,330.5C 353.5,331.5 353.5,332.5 353.5,333.5C 354.833,333.5 356.167,333.5 357.5,333.5C 357.5,332.5 357.5,331.5 357.5,330.5C 358.833,330.5 360.167,330.5 361.5,330.5C 361.167,333.5 362.5,334.833 365.5,334.5C 365.5,333.167 365.5,331.833 365.5,330.5C 372.997,331.584 378.997,329.084 383.5,323C 384.793,322.51 386.127,322.343 387.5,322.5C 387.5,321.167 387.5,319.833 387.5,318.5C 388.139,319.097 388.472,319.93 388.5,321C 387.46,323.131 385.96,324.964 384,326.5C 383.153,329.588 383.653,332.421 385.5,335C 383.264,337.284 380.598,338.784 377.5,339.5C 374.615,339.806 371.948,339.473 369.5,338.5C 369.5,337.167 369.5,335.833 369.5,334.5C 365.965,334.337 364.965,335.67 366.5,338.5C 364.5,339.833 362.5,339.833 360.5,338.5C 363.218,336.912 363.052,335.579 360,334.5C 356.948,335.579 356.782,336.912 359.5,338.5C 355.366,339.485 351.032,339.818 346.5,339.5C 341.489,339.666 336.489,339.499 331.5,339C 329.998,338.417 328.665,337.584 327.5,336.5C 332.188,333.787 333.688,329.787 332,324.5C 330.758,323.128 329.258,322.128 327.5,321.5C 326.614,320.675 326.281,319.675 326.5,318.5 Z"/></g>
<g><path style="opacity:1" fill="#70f1f4" d="M 387.5,318.5 C 387.5,319.833 387.5,321.167 387.5,322.5C 386.127,322.343 384.793,322.51 383.5,323C 378.997,329.084 372.997,331.584 365.5,330.5C 364.295,329.314 362.961,329.314 361.5,330.5C 360.167,330.5 358.833,330.5 357.5,330.5C 357.5,329.833 357.167,329.5 356.5,329.5C 360.5,328.833 364.5,328.167 368.5,327.5C 370.655,327.628 372.655,327.128 374.5,326C 378.055,321.897 382.388,319.397 387.5,318.5 Z"/></g>
<g><path style="opacity:1" fill="#121212" d="M 183.5,324.5 C 184.833,324.5 186.167,324.5 187.5,324.5C 187.5,325.833 187.5,327.167 187.5,328.5C 184.5,328.833 183.167,327.5 183.5,324.5 Z"/></g>
<g><path style="opacity:1" fill="#111111" d="M 175.5,326.5 C 176.833,326.5 178.167,326.5 179.5,326.5C 179.5,327.833 179.5,329.167 179.5,330.5C 176.5,330.833 175.167,329.5 175.5,326.5 Z"/></g>
<g><path style="opacity:1" fill="#ededed" d="M 218.5,325.5 C 219.5,325.5 220.5,325.5 221.5,325.5C 221.024,331.783 221.024,337.783 221.5,343.5C 218.591,340.423 215.258,337.923 211.5,336C 208.05,333.842 207.717,331.342 210.5,328.5C 213.276,327.485 215.943,326.485 218.5,325.5 Z"/></g>
<g><path style="opacity:1" fill="#009fe4" d="M 326.5,325.5 C 329.409,328.7 328.742,331.2 324.5,333C 323.167,333.667 321.833,333.667 320.5,333C 323.577,331.338 325.577,328.838 326.5,325.5 Z"/></g>
<g><path style="opacity:1" fill="#4faaac" d="M 347.5,327.5 C 354.5,327.5 361.5,327.5 368.5,327.5C 364.5,328.167 360.5,328.833 356.5,329.5C 355.209,329.263 354.209,329.596 353.5,330.5C 352.167,330.5 350.833,330.5 349.5,330.5C 348.791,329.596 347.791,329.263 346.5,329.5C 346.833,328.833 347.167,328.167 347.5,327.5 Z"/></g>
<g><path style="opacity:1" fill="#222222" d="M 167.5,328.5 C 169.167,328.5 170.833,328.5 172.5,328.5C 172.65,332.161 171.15,333.161 168,331.5C 167.517,330.552 167.351,329.552 167.5,328.5 Z"/></g>
<g><path style="opacity:1" fill="#2c2c2c" d="M 189.5,327.5 C 193.161,327.35 194.161,328.85 192.5,332C 188.707,332.487 187.707,330.987 189.5,327.5 Z"/></g>
<g><path style="opacity:1" fill="#6ef1f6" d="M 334.5,326.5 C 338.634,327.485 342.968,327.818 347.5,327.5C 347.167,328.167 346.833,328.833 346.5,329.5C 345.833,329.5 345.5,329.833 345.5,330.5C 341.5,330.5 337.5,330.5 333.5,330.5C 333.232,328.901 333.566,327.568 334.5,326.5 Z"/></g>
<g><path style="opacity:1" fill="#061115" d="M 346.5,329.5 C 347.791,329.263 348.791,329.596 349.5,330.5C 349.5,331.5 349.5,332.5 349.5,333.5C 347.027,333.912 345.694,332.912 345.5,330.5C 345.5,329.833 345.833,329.5 346.5,329.5 Z"/></g>
<g><path style="opacity:1" fill="#ebebeb" d="M 141.5,330.5 C 147.488,330.664 148.821,333.164 145.5,338C 140.262,341.266 134.595,342.266 128.5,341C 127.5,340 126.5,339 125.5,338C 130.682,339.307 135.516,338.473 140,335.5C 141.009,333.975 141.509,332.308 141.5,330.5 Z"/></g>
<g><path style="opacity:1" fill="#121212" d="M 181.5,329.5 C 184.5,329.167 185.833,330.5 185.5,333.5C 184.167,333.5 182.833,333.5 181.5,333.5C 181.5,332.167 181.5,330.833 181.5,329.5 Z"/></g>
<g><path style="opacity:1" fill="#0a1315" d="M 356.5,329.5 C 357.167,329.5 357.5,329.833 357.5,330.5C 357.5,331.5 357.5,332.5 357.5,333.5C 356.167,333.5 354.833,333.5 353.5,333.5C 353.5,332.5 353.5,331.5 353.5,330.5C 354.209,329.596 355.209,329.263 356.5,329.5 Z"/></g>
<g><path style="opacity:1" fill="#101c21" d="M 365.5,330.5 C 365.5,331.833 365.5,333.167 365.5,334.5C 362.5,334.833 361.167,333.5 361.5,330.5C 362.961,329.314 364.295,329.314 365.5,330.5 Z"/></g>
<g><path style="opacity:1" fill="#005175" d="M 387.5,327.5 C 388.649,327.791 389.316,328.624 389.5,330C 389.167,330.833 388.833,331.667 388.5,332.5C 387.548,330.955 387.215,329.288 387.5,327.5 Z"/></g>
<g><path style="opacity:1" fill="#141414" d="M 174.5,331.5 C 175.5,331.5 176.5,331.5 177.5,331.5C 177.5,332.833 177.5,334.167 177.5,335.5C 176.167,335.5 174.833,335.5 173.5,335.5C 173.433,334.041 173.766,332.708 174.5,331.5 Z"/></g>
<g><path style="opacity:1" fill="#222222" d="M 166.5,333.5 C 169.5,333.167 170.833,334.5 170.5,337.5C 168.833,337.5 167.167,337.5 165.5,337.5C 165.433,336.041 165.766,334.708 166.5,333.5 Z"/></g>
<g><path style="opacity:1" fill="#f9f9f9" d="M 201.5,334.5 C 202.978,334.238 204.311,334.571 205.5,335.5C 208.258,338.718 211.591,341.218 215.5,343C 218.596,345.029 220.262,347.862 220.5,351.5C 200.474,356.839 180.474,362.173 160.5,367.5C 159.838,361.437 161.004,355.77 164,350.5C 164.497,348.19 164.663,345.857 164.5,343.5C 177.222,341.627 189.555,338.627 201.5,334.5 Z"/></g>
<g><path style="opacity:1" fill="#0d1f2b" d="M 342.5,333.5 C 346.161,333.35 347.161,334.85 345.5,338C 342.041,338.145 341.041,336.645 342.5,333.5 Z"/></g>
<g><path style="opacity:1" fill="#0c1921" d="M 349.5,334.5 C 350.873,334.343 352.207,334.51 353.5,335C 354.674,337.829 353.674,338.829 350.5,338C 349.663,336.989 349.33,335.822 349.5,334.5 Z"/></g>
<g><path style="opacity:1" fill="#061219" d="M 360.5,338.5 C 360.167,338.5 359.833,338.5 359.5,338.5C 356.782,336.912 356.948,335.579 360,334.5C 363.052,335.579 363.218,336.912 360.5,338.5 Z"/></g>
<g><path style="opacity:1" fill="#09141a" d="M 369.5,338.5 C 368.5,338.5 367.5,338.5 366.5,338.5C 364.965,335.67 365.965,334.337 369.5,334.5C 369.5,335.833 369.5,337.167 369.5,338.5 Z"/></g>
<g><path style="opacity:1" fill="#00a2e8" d="M 303.5,335.5 C 306.777,335.216 309.943,335.549 313,336.5C 313.59,340.297 313.09,343.964 311.5,347.5C 309.869,345.941 309.036,343.941 309,341.5C 304.421,338.355 300.921,339.355 298.5,344.5C 297.417,343.635 297.251,342.635 298,341.5C 299.36,338.977 301.193,336.977 303.5,335.5 Z"/></g>
<g><path style="opacity:1" fill="#00a5ee" d="M 408.5,335.5 C 415.065,334.422 417.232,337.089 415,343.5C 411.116,345.627 406.949,346.627 402.5,346.5C 402.5,345.167 402.5,343.833 402.5,342.5C 401.167,342.5 399.833,342.5 398.5,342.5C 398.923,345.288 397.923,347.288 395.5,348.5C 394.198,341.619 397.198,338.119 404.5,338C 406.066,337.392 407.4,336.558 408.5,335.5 Z"/></g>
<g><path style="opacity:1" fill="#01a0e5" d="M 321.5,359.5 C 319.833,359.5 318.167,359.5 316.5,359.5C 317.141,356.503 318.475,353.837 320.5,351.5C 320.272,349.603 319.272,348.27 317.5,347.5C 316.345,344.554 316.179,341.554 317,338.5C 319.064,337.409 321.231,337.242 323.5,338C 325.188,339.688 326.855,341.355 328.5,343C 325.958,345.882 323.791,349.048 322,352.5C 321.503,354.81 321.337,357.143 321.5,359.5 Z"/></g>
<g><path style="opacity:1" fill="#00557a" d="M 359.5,338.5 C 359.833,338.5 360.167,338.5 360.5,338.5C 362.5,339.833 364.5,339.833 366.5,338.5C 367.5,338.5 368.5,338.5 369.5,338.5C 371.948,339.473 374.615,339.806 377.5,339.5C 367.167,340.833 356.833,340.833 346.5,339.5C 351.032,339.818 355.366,339.485 359.5,338.5 Z"/></g>
<g><path style="opacity:1" fill="#009de0" d="M 387.5,338.5 C 389.225,338.843 389.725,339.843 389,341.5C 385.912,344.639 382.412,346.806 378.5,348C 378.043,347.586 377.709,347.086 377.5,346.5C 380.903,343.814 384.236,341.147 387.5,338.5 Z"/></g>
<g><path style="opacity:1" fill="#eeeeee" d="M 151.5,347.5 C 151.923,349.781 151.256,351.448 149.5,352.5C 145.727,351.822 142.894,353.156 141,356.5C 141.062,347.538 137.062,344.871 129,348.5C 128.51,349.793 128.343,351.127 128.5,352.5C 117.101,351.342 112.935,345.342 116,334.5C 117.707,333.862 119.54,333.862 121.5,334.5C 121.043,339.421 123.043,342.921 127.5,345C 134.901,346.191 141.901,345.025 148.5,341.5C 149.442,341.608 150.275,341.941 151,342.5C 151.494,344.134 151.66,345.801 151.5,347.5 Z"/></g>
<g><path style="opacity:1" fill="#00adf9" d="M 343.5,343.5 C 352.833,344.167 362.167,344.833 371.5,345.5C 359.766,352.856 347.099,357.856 333.5,360.5C 331.052,359.527 328.385,359.194 325.5,359.5C 326.243,348.084 332.243,342.751 343.5,343.5 Z"/></g>
<g><path style="opacity:1" fill="#005174" d="M 343.5,343.5 C 353.19,343.168 362.856,343.502 372.5,344.5C 372.376,345.107 372.043,345.44 371.5,345.5C 362.167,344.833 352.833,344.167 343.5,343.5 Z"/></g>
<g><path style="opacity:1" fill="#e8e8e8" d="M 155.5,344.5 C 156.833,344.5 158.167,344.5 159.5,344.5C 159.965,348.792 159.132,352.792 157,356.5C 156.358,352.509 155.858,348.509 155.5,344.5 Z"/></g>
<g><path style="opacity:1" fill="#00a3eb" d="M 388.5,346.5 C 389.649,346.791 390.316,347.624 390.5,349C 390.333,349.833 390.167,350.667 390,351.5C 387.667,352.167 385.333,352.833 383,353.5C 382.333,352.833 382.333,352.167 383,351.5C 385.191,350.167 387.024,348.5 388.5,346.5 Z"/></g>
<g><path style="opacity:1" fill="#e09c6e" d="M 259.5,347.5 C 262.773,355.243 261.107,362.077 254.5,368C 246.45,372.773 238.617,372.606 231,367.5C 228.132,360.679 230.132,358.679 237,361.5C 246.95,360.707 254.45,356.041 259.5,347.5 Z"/></g>
<g><path style="opacity:1" fill="#03a0e4" d="M 360.5,361.5 C 357.375,360.521 354.042,360.187 350.5,360.5C 358.515,357.325 366.181,353.325 373.5,348.5C 374.415,349.328 375.081,350.328 375.5,351.5C 370.643,355.092 365.643,358.425 360.5,361.5 Z"/></g>
<g><path style="opacity:1" fill="#888888" d="M 151.5,347.5 C 152.629,349.628 152.796,351.961 152,354.5C 151.005,353.934 150.172,353.267 149.5,352.5C 151.256,351.448 151.923,349.781 151.5,347.5 Z"/></g>
<g><path style="opacity:1" fill="#f4f4f4" d="M 220.5,354.5 C 221.822,354.33 222.989,354.663 224,355.5C 225.015,359.44 225.515,363.44 225.5,367.5C 207.43,372.349 189.43,377.516 171.5,383C 160.008,386.754 148.341,387.754 136.5,386C 135.594,384.301 135.261,382.467 135.5,380.5C 141.009,380.078 145.342,377.578 148.5,373C 150.81,372.503 153.143,372.337 155.5,372.5C 154.813,377.494 156.813,380.494 161.5,381.5C 160.357,378.316 159.691,374.983 159.5,371.5C 180.241,366.801 200.575,361.135 220.5,354.5 Z"/></g>
<g><path style="opacity:1" fill="#00a6ee" d="M 379.5,360.5 C 376.5,360.5 373.5,360.5 370.5,360.5C 372.513,358.503 374.846,356.836 377.5,355.5C 379.217,356.668 379.884,358.335 379.5,360.5 Z"/></g>
<g><path style="opacity:1" fill="#53ccd9" d="M 325.5,359.5 C 328.385,359.194 331.052,359.527 333.5,360.5C 330.385,362.177 327.718,361.844 325.5,359.5 Z"/></g>
<g><path style="opacity:1" fill="#6deaec" d="M 316.5,359.5 C 318.167,359.5 319.833,359.5 321.5,359.5C 321.209,360.649 320.376,361.316 319,361.5C 317.624,361.316 316.791,360.649 316.5,359.5 Z"/></g>
<g><path style="opacity:1" fill="#68e7ed" d="M 350.5,360.5 C 354.042,360.187 357.375,360.521 360.5,361.5C 358.287,362.773 355.954,363.773 353.5,364.5C 347.833,364.5 342.167,364.5 336.5,364.5C 340.978,362.877 345.645,361.544 350.5,360.5 Z"/></g>
<g><path style="opacity:1" fill="#70f3f7" d="M 370.5,360.5 C 373.5,360.5 376.5,360.5 379.5,360.5C 379.5,361.833 379.5,363.167 379.5,364.5C 374.167,364.5 368.833,364.5 363.5,364.5C 365.663,362.917 367.996,361.584 370.5,360.5 Z"/></g>
<g><path style="opacity:1" fill="#72f8fb" d="M 386.5,360.5 C 386.5,361.167 386.5,361.833 386.5,362.5C 385.908,365.083 385.242,365.083 384.5,362.5C 384.747,361.287 385.414,360.62 386.5,360.5 Z"/></g>
<g><path style="opacity:1" fill="#dddddd" d="M 153.5,364.5 C 153.5,365.833 153.5,367.167 153.5,368.5C 152.167,368.5 150.833,368.5 149.5,368.5C 148.034,365.336 149.034,363.002 152.5,361.5C 153.386,362.325 153.719,363.325 153.5,364.5 Z"/></g>
<g><path style="opacity:1" fill="#9b9b9b" d="M 390.5,357.5 C 391.725,358.152 392.392,359.319 392.5,361C 392.333,362.167 392.167,363.333 392,364.5C 390.648,362.406 390.148,360.073 390.5,357.5 Z"/></g>
<g><path style="opacity:1" fill="#00a9f3" d="M 336.5,364.5 C 342.167,364.5 347.833,364.5 353.5,364.5C 341.175,371.585 327.842,375.585 313.5,376.5C 313.423,372.785 313.756,369.119 314.5,365.5C 321.854,365.521 329.187,365.187 336.5,364.5 Z"/></g>
<g><path style="opacity:0.903" fill="#05aef9" d="M 386.5,360.5 C 385.414,360.62 384.747,361.287 384.5,362.5C 385.242,365.083 385.908,365.083 386.5,362.5C 388.652,367.333 391.985,371.333 396.5,374.5C 397.747,376.323 398.414,378.323 398.5,380.5C 374.514,381.582 350.514,381.582 326.5,380.5C 339.079,376.052 351.412,370.719 363.5,364.5C 368.833,364.5 374.167,364.5 379.5,364.5C 379.5,365.5 379.5,366.5 379.5,367.5C 380.822,367.67 381.989,367.337 383,366.5C 383.498,363.183 383.665,359.85 383.5,356.5C 384.5,356.5 385.5,356.5 386.5,356.5C 386.5,357.833 386.5,359.167 386.5,360.5 Z"/></g>
<g><path style="opacity:1" fill="#f3f3f3" d="M 287.5,366.5 C 293.671,370.39 300.338,371.557 307.5,370C 310.034,372.587 310.034,375.253 307.5,378C 301.5,381.333 295.5,381.333 289.5,378C 287.84,376.512 286.84,374.679 286.5,372.5C 286.205,370.265 286.539,368.265 287.5,366.5 Z"/></g>
<g><path style="opacity:1" fill="#585858" d="M 153.5,364.5 C 154.451,365.919 154.784,367.585 154.5,369.5C 152.585,369.784 150.919,369.451 149.5,368.5C 150.833,368.5 152.167,368.5 153.5,368.5C 153.5,367.167 153.5,365.833 153.5,364.5 Z"/></g>
<g><path style="opacity:1" fill="#7e7e7e" d="M 287.5,366.5 C 286.539,368.265 286.205,370.265 286.5,372.5C 285.203,370.307 285.203,367.973 286.5,365.5C 287.107,365.624 287.44,365.957 287.5,366.5 Z"/></g>
</svg>
