<?xml version="1.0" standalone="no"?>
<!DOCTYPE svg PUBLIC "-//W3C//DTD SVG 20010904//EN"
 "http://www.w3.org/TR/2001/REC-SVG-20010904/DTD/svg10.dtd">
<svg version="1.0" xmlns="http://www.w3.org/2000/svg"
 width="80.000000pt" height="60.000000pt" viewBox="0 0 80.000000 60.000000"
 preserveAspectRatio="xMidYMid meet">

<g transform="translate(0.000000,60.000000) scale(0.100000,-0.100000)"
fill="#000000" stroke="none">
<path d="M641 513 c-1 -34 -6 -65 -12 -69 -8 -4 -7 -9 2 -15 20 -12 9 -17 -41
-20 -25 -1 -57 -8 -72 -16 -32 -15 -52 -17 -43 -3 3 6 -1 10 -10 10 -9 0 -15
6 -14 13 3 24 -1 38 -10 33 -9 -6 -61 15 -61 25 0 3 -11 4 -24 2 -20 -4 -29 3
-52 42 -25 44 -28 46 -41 30 -7 -10 -16 -35 -19 -54 -8 -42 -37 -103 -56 -118
-7 -6 -25 -13 -40 -17 -15 -3 -36 -15 -46 -27 -21 -22 -66 -102 -76 -135 -9
-30 17 -54 59 -54 52 0 66 9 59 36 -4 14 -1 31 6 39 14 17 60 20 60 4 0 -6 -9
-8 -21 -4 -17 6 -20 3 -17 -12 2 -10 13 -19 26 -21 12 -2 22 -8 22 -14 0 -6
-12 -8 -32 -4 -21 4 -28 3 -19 -3 11 -7 11 -9 0 -14 -8 -3 -2 -6 13 -6 15 -1
30 4 33 9 3 6 15 10 25 10 13 0 17 5 14 15 -4 9 3 19 17 25 18 8 19 9 4 6 -11
-2 -28 -7 -38 -11 -10 -4 -17 -3 -17 5 0 6 5 8 10 5 5 -3 10 -1 10 4 0 6 11
11 24 11 13 0 27 6 29 13 4 9 8 8 16 -3 6 -8 16 -15 23 -15 7 -1 12 -7 10 -14
-5 -25 29 -51 69 -51 36 0 38 1 41 38 2 28 -4 48 -30 86 -18 27 -30 52 -26 55
4 3 9 0 11 -7 10 -27 35 -43 49 -31 8 6 23 9 33 6 12 -3 21 1 24 12 6 23 57
27 57 4 0 -21 11 -11 14 13 4 23 20 28 38 12 27 -26 36 -19 31 25 l-5 42 21
-25 c14 -18 16 -27 8 -32 -7 -4 9 -8 36 -8 26 0 50 -1 55 -2 4 -1 8 5 10 13 4
22 -41 83 -63 87 -65 10 -67 11 -61 45 3 18 2 46 -3 62 -8 26 -9 21 -10 -32z
m-340 -106 c19 -8 57 -15 84 -16 28 -2 51 -4 53 -6 2 -2 -2 -13 -8 -25 -9 -16
-17 -20 -33 -15 -24 7 -43 11 -99 20 -32 5 -38 10 -38 30 0 29 -2 29 41 12z
m303 -14 c-5 -5 -12 -12 -16 -18 -4 -6 -8 -2 -8 8 0 9 7 17 17 17 9 0 12 -3 7
-7z m-74 -23 c0 -5 -7 -10 -15 -10 -8 0 -15 5 -15 10 0 6 7 10 15 10 8 0 15
-4 15 -10z m-238 -47 c-3 -16 -7 -22 -10 -15 -4 13 4 42 11 42 2 0 2 -12 -1
-27z m68 2 c0 -14 -4 -25 -10 -25 -5 0 -10 11 -10 25 0 14 5 25 10 25 6 0 10
-11 10 -25z m135 -7 c6 -4 2 -8 -7 -8 -10 0 -18 7 -18 17 0 9 3 12 8 7 4 -5
12 -12 17 -16z m-155 -78 c0 -5 -4 -10 -10 -10 -5 0 -10 5 -10 10 0 6 5 10 10
10 6 0 10 -4 10 -10z m36 2 c9 -5 8 -10 -1 -19 -10 -9 -14 -8 -18 8 -5 20 0
24 19 11z m14 -50 c-9 -3 -9 -6 1 -13 8 -5 10 -9 4 -9 -5 0 -17 5 -25 10 -13
8 -12 11 5 24 14 10 21 11 24 3 2 -6 -2 -13 -9 -15z m-195 8 c3 -5 1 -10 -4
-10 -6 0 -11 5 -11 10 0 6 2 10 4 10 3 0 8 -4 11 -10z"/>
<path d="M386 542 c-3 -5 1 -9 9 -9 8 0 12 4 9 9 -3 4 -7 8 -9 8 -2 0 -6 -4
-9 -8z"/>
<path d="M560 429 c0 -5 5 -7 10 -4 6 3 10 8 10 11 0 2 -4 4 -10 4 -5 0 -10
-5 -10 -11z"/>
<path d="M600 288 c0 -19 2 -20 10 -8 13 19 13 30 0 30 -5 0 -10 -10 -10 -22z"/>
<path d="M488 263 c0 -10 -1 -26 0 -35 1 -10 -5 -18 -13 -18 -8 0 -15 -4 -15
-10 0 -5 6 -10 14 -10 9 0 12 -7 9 -20 -5 -17 -1 -18 33 -13 22 3 46 9 55 14
10 5 24 2 39 -8 21 -15 22 -15 15 6 -5 15 -2 21 9 21 9 0 16 5 16 10 0 6 -6
10 -14 10 -8 0 -17 6 -19 13 -4 9 -7 9 -14 0 -12 -17 -103 4 -103 23 0 10 5
12 13 8 8 -5 8 -2 -2 9 -17 21 -21 21 -23 0z"/>
</g>
</svg>
